# xmcd
#
# Track frame offsets:
#	180
#	14925
#	29780
#	44320
#	61167
#	73460
#	90520
#	107935
#	118987
#	130581
#	145520
#	156528
#	170083
#	186544
#	201448
#
# Disc length: 2886 seconds
#
# Revision: 5
# Processed by: cddbd v1.5.1PL0 Copyright (c) Steve Scherf et al.
# Submitted via: audiograbber 1.83.01
#
DISCID=f20b440f
DTITLE=1995-11 Country Radio - 1995-11 Country Radio
DYEAR=1995
DGENRE=Country
TTITLE0=Blackhawk - Like There Ain't No Yesterday
TTITLE1=Faith Hill - It Matters To Me
TTITLE2=Confederate Railroad - When He Was My Age
TTITLE3=Martina Mcbride - Wild Angels
TTITLE4=Daryle Singletary - Too Much Fun
TTITLE5=Holly Dunn - It's Not About Blame
TTITLE6=Kenny Chesney - Grandpa Told Me So
TTITLE7=Ricky Scaggs - Solid Ground
TTITLE8=Rhonda Vincent - What More Do You Want From Me
TTITLE9=Western Flyer - His Memory
TTITLE10=Alan Jackson - Tall, Tall Trees
TTITLE11=Lisa Brokup - She Can't Save Him
TTITLE12=Curtis Day - My Baby's Cookin'
TTITLE13=Keith Whitley - Wherever You Are Tonight
TTITLE14=Clint Black - The Kid
EXTD=
EXTT0=
EXTT1=
EXTT2=
EXTT3=
EXTT4=
EXTT5=
EXTT6=
EXTT7=
EXTT8=
EXTT9=
EXTT10=
EXTT11=
EXTT12=
EXTT13=
EXTT14=
PLAYORDER=
